<mxfile host="app.diagrams.net" modified="2022-11-17T14:37:02.739Z" agent="5.0 (Windows NT 10.0; Win64; x64) AppleWebKit/537.36 (KHTML, like Gecko) Chrome/107.0.0.0 Safari/537.36 Edg/107.0.1418.42" etag="btO8cSyxA_uKxJKPrciQ" version="20.5.3" type="github">
  <diagram id="gJnKB9RHSav9qNcPJOZu" name="第 1 页">
    <mxGraphModel dx="1167" dy="672" grid="1" gridSize="10" guides="1" tooltips="1" connect="1" arrows="1" fold="1" page="1" pageScale="1" pageWidth="827" pageHeight="1169" math="0" shadow="0">
      <root>
        <mxCell id="0" />
        <mxCell id="1" parent="0" />
        <mxCell id="ULs5aNKq9wHD8VcYt_Rm-3" value="" style="rounded=1;whiteSpace=wrap;html=1;" vertex="1" parent="1">
          <mxGeometry x="310" y="110" width="100" height="50" as="geometry" />
        </mxCell>
        <mxCell id="ULs5aNKq9wHD8VcYt_Rm-4" value="" style="rounded=1;whiteSpace=wrap;html=1;" vertex="1" parent="1">
          <mxGeometry x="285" y="190" width="150" height="50" as="geometry" />
        </mxCell>
        <mxCell id="ULs5aNKq9wHD8VcYt_Rm-5" value="" style="rounded=1;whiteSpace=wrap;html=1;" vertex="1" parent="1">
          <mxGeometry x="285" y="270" width="150" height="50" as="geometry" />
        </mxCell>
        <mxCell id="ULs5aNKq9wHD8VcYt_Rm-6" value="" style="rounded=1;whiteSpace=wrap;html=1;" vertex="1" parent="1">
          <mxGeometry x="285" y="350" width="150" height="50" as="geometry" />
        </mxCell>
        <mxCell id="ULs5aNKq9wHD8VcYt_Rm-7" value="" style="rounded=1;whiteSpace=wrap;html=1;" vertex="1" parent="1">
          <mxGeometry x="285" y="430" width="150" height="50" as="geometry" />
        </mxCell>
        <mxCell id="ULs5aNKq9wHD8VcYt_Rm-8" value="" style="rounded=1;whiteSpace=wrap;html=1;" vertex="1" parent="1">
          <mxGeometry x="285" y="510" width="150" height="50" as="geometry" />
        </mxCell>
        <mxCell id="ULs5aNKq9wHD8VcYt_Rm-57" value="" style="edgeStyle=orthogonalEdgeStyle;rounded=0;orthogonalLoop=1;jettySize=auto;html=1;" edge="1" parent="1" source="ULs5aNKq9wHD8VcYt_Rm-10" target="ULs5aNKq9wHD8VcYt_Rm-11">
          <mxGeometry relative="1" as="geometry" />
        </mxCell>
        <mxCell id="ULs5aNKq9wHD8VcYt_Rm-10" value="学生实验须知" style="text;html=1;strokeColor=none;fillColor=none;align=center;verticalAlign=middle;whiteSpace=wrap;rounded=0;" vertex="1" parent="1">
          <mxGeometry x="317.5" y="120" width="85" height="30" as="geometry" />
        </mxCell>
        <mxCell id="ULs5aNKq9wHD8VcYt_Rm-56" value="" style="edgeStyle=orthogonalEdgeStyle;rounded=0;orthogonalLoop=1;jettySize=auto;html=1;" edge="1" parent="1" source="ULs5aNKq9wHD8VcYt_Rm-11" target="ULs5aNKq9wHD8VcYt_Rm-12">
          <mxGeometry relative="1" as="geometry" />
        </mxCell>
        <mxCell id="ULs5aNKq9wHD8VcYt_Rm-11" value="实验课通知" style="text;html=1;strokeColor=none;fillColor=none;align=center;verticalAlign=middle;whiteSpace=wrap;rounded=0;" vertex="1" parent="1">
          <mxGeometry x="320" y="200" width="80" height="30" as="geometry" />
        </mxCell>
        <mxCell id="ULs5aNKq9wHD8VcYt_Rm-55" value="" style="edgeStyle=orthogonalEdgeStyle;rounded=0;orthogonalLoop=1;jettySize=auto;html=1;" edge="1" parent="1" source="ULs5aNKq9wHD8VcYt_Rm-12" target="ULs5aNKq9wHD8VcYt_Rm-13">
          <mxGeometry relative="1" as="geometry" />
        </mxCell>
        <mxCell id="ULs5aNKq9wHD8VcYt_Rm-12" value="查询实验课内容" style="text;html=1;strokeColor=none;fillColor=none;align=center;verticalAlign=middle;whiteSpace=wrap;rounded=0;" vertex="1" parent="1">
          <mxGeometry x="315" y="280" width="90" height="30" as="geometry" />
        </mxCell>
        <mxCell id="ULs5aNKq9wHD8VcYt_Rm-54" value="" style="edgeStyle=orthogonalEdgeStyle;rounded=0;orthogonalLoop=1;jettySize=auto;html=1;" edge="1" parent="1" source="ULs5aNKq9wHD8VcYt_Rm-13" target="ULs5aNKq9wHD8VcYt_Rm-14">
          <mxGeometry relative="1" as="geometry" />
        </mxCell>
        <mxCell id="ULs5aNKq9wHD8VcYt_Rm-13" value="上实验课" style="text;html=1;strokeColor=none;fillColor=none;align=center;verticalAlign=middle;whiteSpace=wrap;rounded=0;" vertex="1" parent="1">
          <mxGeometry x="330" y="360" width="60" height="30" as="geometry" />
        </mxCell>
        <mxCell id="ULs5aNKq9wHD8VcYt_Rm-53" value="" style="edgeStyle=orthogonalEdgeStyle;rounded=0;orthogonalLoop=1;jettySize=auto;html=1;" edge="1" parent="1" source="ULs5aNKq9wHD8VcYt_Rm-14" target="ULs5aNKq9wHD8VcYt_Rm-15">
          <mxGeometry relative="1" as="geometry" />
        </mxCell>
        <mxCell id="ULs5aNKq9wHD8VcYt_Rm-14" value="提交实验报告" style="text;html=1;strokeColor=none;fillColor=none;align=center;verticalAlign=middle;whiteSpace=wrap;rounded=0;" vertex="1" parent="1">
          <mxGeometry x="320" y="440" width="80" height="30" as="geometry" />
        </mxCell>
        <mxCell id="ULs5aNKq9wHD8VcYt_Rm-72" value="" style="edgeStyle=orthogonalEdgeStyle;rounded=0;orthogonalLoop=1;jettySize=auto;html=1;" edge="1" parent="1" source="ULs5aNKq9wHD8VcYt_Rm-15" target="ULs5aNKq9wHD8VcYt_Rm-17">
          <mxGeometry relative="1" as="geometry" />
        </mxCell>
        <mxCell id="ULs5aNKq9wHD8VcYt_Rm-15" value="提交实验作品" style="text;html=1;strokeColor=none;fillColor=none;align=center;verticalAlign=middle;whiteSpace=wrap;rounded=0;" vertex="1" parent="1">
          <mxGeometry x="320" y="520" width="80" height="30" as="geometry" />
        </mxCell>
        <mxCell id="ULs5aNKq9wHD8VcYt_Rm-50" value="" style="edgeStyle=orthogonalEdgeStyle;rounded=0;orthogonalLoop=1;jettySize=auto;html=1;" edge="1" parent="1" source="ULs5aNKq9wHD8VcYt_Rm-17" target="ULs5aNKq9wHD8VcYt_Rm-35">
          <mxGeometry relative="1" as="geometry" />
        </mxCell>
        <mxCell id="ULs5aNKq9wHD8VcYt_Rm-17" value="" style="rounded=1;whiteSpace=wrap;html=1;" vertex="1" parent="1">
          <mxGeometry x="285" y="600" width="150" height="50" as="geometry" />
        </mxCell>
        <mxCell id="ULs5aNKq9wHD8VcYt_Rm-23" value="查询实验成绩" style="text;html=1;strokeColor=none;fillColor=none;align=center;verticalAlign=middle;whiteSpace=wrap;rounded=0;" vertex="1" parent="1">
          <mxGeometry x="322.5" y="615" width="80" height="20" as="geometry" />
        </mxCell>
        <mxCell id="ULs5aNKq9wHD8VcYt_Rm-25" value="" style="rounded=1;whiteSpace=wrap;html=1;" vertex="1" parent="1">
          <mxGeometry x="175" y="790" width="120" height="50" as="geometry" />
        </mxCell>
        <mxCell id="ULs5aNKq9wHD8VcYt_Rm-27" value="" style="rounded=1;whiteSpace=wrap;html=1;" vertex="1" parent="1">
          <mxGeometry x="435" y="790" width="120" height="50" as="geometry" />
        </mxCell>
        <mxCell id="ULs5aNKq9wHD8VcYt_Rm-69" value="" style="edgeStyle=orthogonalEdgeStyle;rounded=0;orthogonalLoop=1;jettySize=auto;html=1;" edge="1" parent="1" source="ULs5aNKq9wHD8VcYt_Rm-28" target="ULs5aNKq9wHD8VcYt_Rm-58">
          <mxGeometry relative="1" as="geometry" />
        </mxCell>
        <mxCell id="ULs5aNKq9wHD8VcYt_Rm-28" value="完成该门课程实验" style="text;html=1;strokeColor=none;fillColor=none;align=center;verticalAlign=middle;whiteSpace=wrap;rounded=0;" vertex="1" parent="1">
          <mxGeometry x="175" y="800" width="110" height="30" as="geometry" />
        </mxCell>
        <mxCell id="ULs5aNKq9wHD8VcYt_Rm-68" value="" style="edgeStyle=orthogonalEdgeStyle;rounded=0;orthogonalLoop=1;jettySize=auto;html=1;" edge="1" parent="1" source="ULs5aNKq9wHD8VcYt_Rm-29" target="ULs5aNKq9wHD8VcYt_Rm-62">
          <mxGeometry relative="1" as="geometry" />
        </mxCell>
        <mxCell id="ULs5aNKq9wHD8VcYt_Rm-29" value="登记补做实验或测试" style="text;html=1;strokeColor=none;fillColor=none;align=center;verticalAlign=middle;whiteSpace=wrap;rounded=0;" vertex="1" parent="1">
          <mxGeometry x="450" y="800" width="110" height="30" as="geometry" />
        </mxCell>
        <mxCell id="ULs5aNKq9wHD8VcYt_Rm-34" value="" style="rhombus;whiteSpace=wrap;html=1;" vertex="1" parent="1">
          <mxGeometry x="240" y="680" width="235" height="80" as="geometry" />
        </mxCell>
        <mxCell id="ULs5aNKq9wHD8VcYt_Rm-35" value="及格否？" style="text;html=1;strokeColor=none;fillColor=none;align=center;verticalAlign=middle;whiteSpace=wrap;rounded=0;" vertex="1" parent="1">
          <mxGeometry x="330" y="705" width="60" height="30" as="geometry" />
        </mxCell>
        <mxCell id="ULs5aNKq9wHD8VcYt_Rm-46" value="" style="endArrow=classic;html=1;rounded=0;exitX=1;exitY=0.5;exitDx=0;exitDy=0;entryX=0.681;entryY=0.021;entryDx=0;entryDy=0;entryPerimeter=0;" edge="1" parent="1" source="ULs5aNKq9wHD8VcYt_Rm-34" target="ULs5aNKq9wHD8VcYt_Rm-27">
          <mxGeometry width="50" height="50" relative="1" as="geometry">
            <mxPoint x="610" y="780" as="sourcePoint" />
            <mxPoint x="660" y="730" as="targetPoint" />
            <Array as="points">
              <mxPoint x="517" y="720" />
            </Array>
          </mxGeometry>
        </mxCell>
        <mxCell id="ULs5aNKq9wHD8VcYt_Rm-48" value="" style="endArrow=classic;html=1;rounded=0;" edge="1" parent="1">
          <mxGeometry width="50" height="50" relative="1" as="geometry">
            <mxPoint x="610" y="780" as="sourcePoint" />
            <mxPoint x="610" y="780" as="targetPoint" />
          </mxGeometry>
        </mxCell>
        <mxCell id="ULs5aNKq9wHD8VcYt_Rm-49" value="" style="endArrow=classic;html=1;rounded=0;exitX=0;exitY=0.5;exitDx=0;exitDy=0;entryX=0.25;entryY=0;entryDx=0;entryDy=0;" edge="1" parent="1" source="ULs5aNKq9wHD8VcYt_Rm-34" target="ULs5aNKq9wHD8VcYt_Rm-25">
          <mxGeometry width="50" height="50" relative="1" as="geometry">
            <mxPoint x="130" y="770" as="sourcePoint" />
            <mxPoint x="180" y="720" as="targetPoint" />
            <Array as="points">
              <mxPoint x="205" y="720" />
            </Array>
          </mxGeometry>
        </mxCell>
        <mxCell id="ULs5aNKq9wHD8VcYt_Rm-58" value="" style="rounded=1;whiteSpace=wrap;html=1;" vertex="1" parent="1">
          <mxGeometry x="170" y="900" width="120" height="50" as="geometry" />
        </mxCell>
        <mxCell id="ULs5aNKq9wHD8VcYt_Rm-59" value="期末出实验成绩" style="text;html=1;strokeColor=none;fillColor=none;align=center;verticalAlign=middle;whiteSpace=wrap;rounded=0;" vertex="1" parent="1">
          <mxGeometry x="175" y="910" width="100" height="30" as="geometry" />
        </mxCell>
        <mxCell id="ULs5aNKq9wHD8VcYt_Rm-62" value="" style="rhombus;whiteSpace=wrap;html=1;" vertex="1" parent="1">
          <mxGeometry x="430" y="892.5" width="150" height="65" as="geometry" />
        </mxCell>
        <mxCell id="ULs5aNKq9wHD8VcYt_Rm-63" value="补做或测试？" style="text;html=1;strokeColor=none;fillColor=none;align=center;verticalAlign=middle;whiteSpace=wrap;rounded=0;" vertex="1" parent="1">
          <mxGeometry x="460" y="910" width="90" height="30" as="geometry" />
        </mxCell>
        <mxCell id="ULs5aNKq9wHD8VcYt_Rm-65" style="edgeStyle=orthogonalEdgeStyle;rounded=0;orthogonalLoop=1;jettySize=auto;html=1;exitX=0.5;exitY=1;exitDx=0;exitDy=0;" edge="1" parent="1" source="ULs5aNKq9wHD8VcYt_Rm-62" target="ULs5aNKq9wHD8VcYt_Rm-62">
          <mxGeometry relative="1" as="geometry" />
        </mxCell>
        <mxCell id="ULs5aNKq9wHD8VcYt_Rm-82" value="" style="edgeStyle=orthogonalEdgeStyle;rounded=0;orthogonalLoop=1;jettySize=auto;html=1;" edge="1" parent="1" source="ULs5aNKq9wHD8VcYt_Rm-73" target="ULs5aNKq9wHD8VcYt_Rm-74">
          <mxGeometry relative="1" as="geometry" />
        </mxCell>
        <mxCell id="ULs5aNKq9wHD8VcYt_Rm-73" value="" style="rounded=1;whiteSpace=wrap;html=1;" vertex="1" parent="1">
          <mxGeometry x="330" y="970" width="120" height="50" as="geometry" />
        </mxCell>
        <mxCell id="ULs5aNKq9wHD8VcYt_Rm-83" value="" style="edgeStyle=orthogonalEdgeStyle;rounded=0;orthogonalLoop=1;jettySize=auto;html=1;" edge="1" parent="1" source="ULs5aNKq9wHD8VcYt_Rm-74" target="ULs5aNKq9wHD8VcYt_Rm-81">
          <mxGeometry relative="1" as="geometry" />
        </mxCell>
        <mxCell id="ULs5aNKq9wHD8VcYt_Rm-74" value="" style="rounded=1;whiteSpace=wrap;html=1;" vertex="1" parent="1">
          <mxGeometry x="330" y="1070" width="120" height="50" as="geometry" />
        </mxCell>
        <mxCell id="ULs5aNKq9wHD8VcYt_Rm-84" value="" style="edgeStyle=orthogonalEdgeStyle;rounded=0;orthogonalLoop=1;jettySize=auto;html=1;" edge="1" parent="1" source="ULs5aNKq9wHD8VcYt_Rm-75" target="ULs5aNKq9wHD8VcYt_Rm-80">
          <mxGeometry relative="1" as="geometry" />
        </mxCell>
        <mxCell id="ULs5aNKq9wHD8VcYt_Rm-75" value="" style="rounded=1;whiteSpace=wrap;html=1;" vertex="1" parent="1">
          <mxGeometry x="570" y="970" width="120" height="50" as="geometry" />
        </mxCell>
        <mxCell id="ULs5aNKq9wHD8VcYt_Rm-78" value="" style="endArrow=classic;html=1;rounded=0;exitX=1;exitY=0.5;exitDx=0;exitDy=0;entryX=0.5;entryY=0;entryDx=0;entryDy=0;" edge="1" parent="1" source="ULs5aNKq9wHD8VcYt_Rm-62" target="ULs5aNKq9wHD8VcYt_Rm-75">
          <mxGeometry width="50" height="50" relative="1" as="geometry">
            <mxPoint x="610" y="1080" as="sourcePoint" />
            <mxPoint x="660" y="1030" as="targetPoint" />
            <Array as="points">
              <mxPoint x="630" y="925" />
            </Array>
          </mxGeometry>
        </mxCell>
        <mxCell id="ULs5aNKq9wHD8VcYt_Rm-79" value="" style="endArrow=classic;html=1;rounded=0;exitX=0;exitY=0.5;exitDx=0;exitDy=0;entryX=0.5;entryY=0;entryDx=0;entryDy=0;" edge="1" parent="1" source="ULs5aNKq9wHD8VcYt_Rm-62" target="ULs5aNKq9wHD8VcYt_Rm-73">
          <mxGeometry width="50" height="50" relative="1" as="geometry">
            <mxPoint x="610" y="1080" as="sourcePoint" />
            <mxPoint x="660" y="1030" as="targetPoint" />
            <Array as="points">
              <mxPoint x="390" y="925" />
            </Array>
          </mxGeometry>
        </mxCell>
        <mxCell id="ULs5aNKq9wHD8VcYt_Rm-80" value="" style="rounded=1;whiteSpace=wrap;html=1;" vertex="1" parent="1">
          <mxGeometry x="570" y="1070" width="120" height="50" as="geometry" />
        </mxCell>
        <mxCell id="ULs5aNKq9wHD8VcYt_Rm-81" value="" style="rhombus;whiteSpace=wrap;html=1;" vertex="1" parent="1">
          <mxGeometry x="320" y="1169" width="140" height="80" as="geometry" />
        </mxCell>
        <mxCell id="ULs5aNKq9wHD8VcYt_Rm-85" value="测试通过" style="text;html=1;strokeColor=none;fillColor=none;align=center;verticalAlign=middle;whiteSpace=wrap;rounded=0;" vertex="1" parent="1">
          <mxGeometry x="360" y="1194" width="60" height="30" as="geometry" />
        </mxCell>
        <mxCell id="ULs5aNKq9wHD8VcYt_Rm-86" value="" style="rounded=1;whiteSpace=wrap;html=1;" vertex="1" parent="1">
          <mxGeometry x="210" y="1280" width="120" height="60" as="geometry" />
        </mxCell>
        <mxCell id="ULs5aNKq9wHD8VcYt_Rm-87" value="期末出成绩" style="text;html=1;strokeColor=none;fillColor=none;align=center;verticalAlign=middle;whiteSpace=wrap;rounded=0;" vertex="1" parent="1">
          <mxGeometry x="235" y="1295" width="70" height="30" as="geometry" />
        </mxCell>
        <mxCell id="ULs5aNKq9wHD8VcYt_Rm-88" value="" style="endArrow=classic;html=1;rounded=0;exitX=0;exitY=0.5;exitDx=0;exitDy=0;entryX=0.5;entryY=0;entryDx=0;entryDy=0;" edge="1" parent="1" source="ULs5aNKq9wHD8VcYt_Rm-81" target="ULs5aNKq9wHD8VcYt_Rm-86">
          <mxGeometry width="50" height="50" relative="1" as="geometry">
            <mxPoint x="610" y="1170" as="sourcePoint" />
            <mxPoint x="660" y="1120" as="targetPoint" />
            <Array as="points">
              <mxPoint x="270" y="1210" />
            </Array>
          </mxGeometry>
        </mxCell>
        <mxCell id="ULs5aNKq9wHD8VcYt_Rm-89" value="" style="endArrow=classic;html=1;rounded=0;exitX=1;exitY=0.5;exitDx=0;exitDy=0;entryX=0;entryY=0.5;entryDx=0;entryDy=0;" edge="1" parent="1" source="ULs5aNKq9wHD8VcYt_Rm-81" target="ULs5aNKq9wHD8VcYt_Rm-75">
          <mxGeometry width="50" height="50" relative="1" as="geometry">
            <mxPoint x="610" y="1170" as="sourcePoint" />
            <mxPoint x="660" y="1120" as="targetPoint" />
            <Array as="points">
              <mxPoint x="510" y="1209" />
              <mxPoint x="510" y="995" />
            </Array>
          </mxGeometry>
        </mxCell>
        <mxCell id="ULs5aNKq9wHD8VcYt_Rm-90" value="登记通知" style="text;html=1;strokeColor=none;fillColor=none;align=center;verticalAlign=middle;whiteSpace=wrap;rounded=0;" vertex="1" parent="1">
          <mxGeometry x="600" y="1080" width="60" height="30" as="geometry" />
        </mxCell>
        <mxCell id="ULs5aNKq9wHD8VcYt_Rm-91" value="跟班补做实验" style="text;html=1;strokeColor=none;fillColor=none;align=center;verticalAlign=middle;whiteSpace=wrap;rounded=0;" vertex="1" parent="1">
          <mxGeometry x="590" y="980" width="80" height="30" as="geometry" />
        </mxCell>
        <mxCell id="ULs5aNKq9wHD8VcYt_Rm-94" value="先登记后考试" style="text;html=1;strokeColor=none;fillColor=none;align=center;verticalAlign=middle;whiteSpace=wrap;rounded=0;" vertex="1" parent="1">
          <mxGeometry x="330" y="1080" width="110" height="30" as="geometry" />
        </mxCell>
        <mxCell id="ULs5aNKq9wHD8VcYt_Rm-95" value="登记参加实验测试" style="text;html=1;strokeColor=none;fillColor=none;align=center;verticalAlign=middle;whiteSpace=wrap;rounded=0;" vertex="1" parent="1">
          <mxGeometry x="330" y="980" width="120" height="30" as="geometry" />
        </mxCell>
        <mxCell id="ULs5aNKq9wHD8VcYt_Rm-96" value="" style="endArrow=classic;html=1;rounded=0;exitX=1;exitY=0.5;exitDx=0;exitDy=0;entryX=1;entryY=0.25;entryDx=0;entryDy=0;" edge="1" parent="1" source="ULs5aNKq9wHD8VcYt_Rm-80" target="ULs5aNKq9wHD8VcYt_Rm-3">
          <mxGeometry width="50" height="50" relative="1" as="geometry">
            <mxPoint x="610" y="1150" as="sourcePoint" />
            <mxPoint x="410" y="130" as="targetPoint" />
            <Array as="points">
              <mxPoint x="790" y="1095" />
              <mxPoint x="780" y="122" />
            </Array>
          </mxGeometry>
        </mxCell>
      </root>
    </mxGraphModel>
  </diagram>
</mxfile>
